<?xml version="1.0" encoding="iso-8859-1"?>
<!-- Generator: Adobe Illustrator 19.0.0, SVG Export Plug-In . SVG Version: 6.00 Build 0)  -->
<svg version="1.1" id="Capa_1" xmlns="http://www.w3.org/2000/svg" xmlns:xlink="http://www.w3.org/1999/xlink" x="0px" y="0px"
	 viewBox="0 0 512 512" style="enable-background:new 0 0 512 512;" xml:space="preserve">
<g>
	<g>
		<path d="M467,0C440.877,0,60.668,0,45,0C20.187,0,0,20.187,0,45c0,26.102,0,406.258,0,422c0,24.813,20.187,45,45,45
			c26.123,0,406.332,0,422,0c24.813,0,45-20.187,45-45c0-26.102,0-406.258,0-422C512,20.187,491.813,0,467,0z M160.667,482H45
			c-8.271,0-15-6.729-15-15V351.333h130.667V482z M160.667,321.334H30V190.667h130.667V321.334z M160.667,160.667H30V45
			c0-8.271,6.729-15,15-15h115.667V160.667z M321.333,482H190.667V351.333h130.666V482z M321.333,321.334H190.667V190.667h130.666
			V321.334z M321.333,160.667H190.667V30h130.666V160.667z M482,467c0,8.271-6.729,15-15,15H351.333V351.333H482V467z M482,321.333
			H351.333V190.667H482V321.333z M482,160.667H351.333V30H467c8.271,0,15,6.729,15,15V160.667z"/>
	</g>
</g>
<g>
</g>
<g>
</g>
<g>
</g>
<g>
</g>
<g>
</g>
<g>
</g>
<g>
</g>
<g>
</g>
<g>
</g>
<g>
</g>
<g>
</g>
<g>
</g>
<g>
</g>
<g>
</g>
<g>
</g>
</svg>
